<svg width="128" height="128" viewBox="0 0 128 128" xmlns="http://www.w3.org/2000/svg" role="img" aria-label="Rex file icon">
  <path d="M24 8h52l28 28v84H24z" fill="#FFF7E8"/>
  <path d="M76 8v28h28" fill="#FFD58A"/>
  <path d="M76 8v28h28" stroke="#F0A53A" stroke-width="6" stroke-linejoin="round"/>
  <path d="M24 8h52l28 28v84H24z" stroke="#F0A53A" stroke-width="6" stroke-linejoin="round"/>

  <circle cx="67" cy="70" r="30" fill="#F7A623"/>
  <circle cx="84" cy="53" r="14" fill="#F7A623"/>
  <circle cx="88" cy="52" r="2.6" fill="#8D4A00"/>
  <path d="M51 70c-4 5-4 12 0 18" stroke="#8D4A00" stroke-width="5" stroke-linecap="round"/>
  <path d="M83 81c8 1 12-5 12-9" stroke="#8D4A00" stroke-width="5" stroke-linecap="round"/>
  <path d="M42 84c-8 5-15 1-18-6" stroke="#D97D00" stroke-width="8" stroke-linecap="round"/>
  <path d="M76 91c8 7 18 8 26 2" stroke="#D97D00" stroke-width="8" stroke-linecap="round"/>
</svg>
